<?xml version="1.0" encoding="UTF-8" standalone="no"?>
<!DOCTYPE svg PUBLIC "-//W3C//DTD SVG 1.1//EN" "http://www.w3.org/Graphics/SVG/1.1/DTD/svg11.dtd">
<svg width="100%" height="100%" viewBox="0 0 4187 1448" version="1.1" xmlns="http://www.w3.org/2000/svg" xmlns:xlink="http://www.w3.org/1999/xlink" xml:space="preserve" xmlns:serif="http://www.serif.com/" style="fill-rule:evenodd;clip-rule:evenodd;stroke-linejoin:round;stroke-miterlimit:2;">
    <g transform="matrix(1,0,0,1,-395.833,-1020.83)">
        <g id="Ebene-1" serif:id="Ebene 1" transform="matrix(4.16667,0,0,4.16667,0,0)">
            <g transform="matrix(1,0,0,1,212.383,397.494)">
                <path d="M0,8.1C1.62,7.289 2.43,7.289 4.049,6.48L5.669,6.48L5.669,17.819C5.669,23.488 4.859,27.538 4.049,31.586C3.24,32.397 3.24,33.206 3.24,34.016C2.43,34.827 2.43,35.636 1.62,36.446C0,39.686 -2.43,42.925 -6.479,45.355C-6.479,46.164 -7.289,46.975 -8.099,46.975C-8.909,47.785 -9.719,47.785 -10.529,48.594C-17.008,51.834 -22.677,53.454 -29.966,53.454C-33.206,53.454 -36.445,53.454 -38.875,52.644C-41.305,51.834 -43.734,50.214 -45.354,48.594C-48.594,45.355 -51.023,41.305 -51.023,36.446C-51.023,34.016 -50.214,31.586 -49.404,29.967C-48.594,27.538 -46.974,25.917 -45.354,24.297C-43.734,22.678 -40.495,21.058 -36.445,19.438C-33.206,17.819 -27.537,16.199 -21.867,14.579C-15.388,12.959 -8.909,11.339 -3.24,8.91C-1.62,8.91 -0.81,8.1 0,8.1M-102.857,-29.965L-48.594,-24.296C-47.784,-27.536 -46.164,-29.965 -44.544,-32.395C-42.925,-34.825 -41.305,-36.445 -38.875,-38.064C-37.255,-39.684 -34.826,-40.494 -31.586,-41.304C-30.776,-41.304 -29.966,-41.304 -29.966,-42.114C-25.917,-42.923 -21.057,-42.923 -16.198,-42.923C-10.529,-42.923 -6.479,-42.114 -2.43,-40.494C-2.43,-40.494 -1.62,-39.684 -0.81,-39.684C0,-38.875 0,-38.875 0.81,-38.064C2.43,-36.445 4.049,-34.015 4.859,-31.586C5.669,-28.345 5.669,-25.106 5.669,-21.867L5.669,-20.247L4.859,-20.247C0.81,-18.627 -2.43,-17.007 -6.479,-16.197C-9.719,-15.387 -12.958,-13.767 -16.198,-12.958C-21.057,-12.148 -29.966,-9.718 -42.925,-7.289C-45.354,-6.478 -47.784,-6.478 -51.023,-5.669C-55.073,-4.859 -58.313,-4.048 -59.933,-4.048C-69.651,-1.619 -76.94,0.811 -83.419,3.241C-89.899,5.67 -94.758,8.91 -97.998,12.959C-101.237,16.199 -103.667,20.248 -105.287,25.108C-106.907,29.967 -107.716,34.827 -107.716,40.496C-107.716,49.405 -105.287,56.694 -100.427,63.983C-99.618,64.792 -98.808,66.413 -97.188,67.222C-96.378,68.842 -94.758,69.652 -93.948,71.272C-89.899,74.511 -85.04,76.941 -80.18,79.371C-78.56,79.371 -77.75,80.181 -76.94,80.181C-69.651,82.611 -61.552,83.42 -52.644,83.42C-45.354,83.42 -38.875,82.611 -33.206,81.8C-26.727,80.991 -21.057,79.371 -16.198,76.941C-10.529,74.511 -5.669,71.272 0,67.222C0.81,66.413 2.43,65.602 3.24,64.792C4.049,63.172 5.669,62.363 6.479,61.553L8.909,59.123L8.909,62.363C9.719,64.792 9.719,66.413 9.719,68.032C10.529,69.652 10.529,71.272 11.338,72.081C11.338,73.702 12.148,75.321 13.768,77.75C13.768,77.75 14.578,78.561 14.578,79.371L14.578,80.181L68.032,80.181C66.412,77.75 65.602,75.321 64.792,72.891C63.982,70.461 63.172,68.032 62.362,65.602C62.362,63.983 61.552,61.553 61.552,58.313L61.552,-19.437C61.552,-25.106 60.743,-29.965 59.123,-35.634C58.313,-37.254 58.313,-38.064 58.313,-38.875C57.503,-39.684 57.503,-41.304 56.693,-42.114C55.073,-47.783 51.833,-52.642 49.404,-56.693C48.594,-56.693 47.784,-57.502 46.974,-58.312C46.974,-59.123 46.164,-59.931 45.354,-59.931C42.115,-63.171 38.065,-65.601 33.206,-68.031C29.156,-69.65 24.297,-71.271 18.628,-72.08C8.099,-74.509 -6.479,-75.32 -24.297,-75.32C-32.396,-75.32 -39.685,-74.509 -46.974,-73.701L-51.023,-73.701C-52.644,-72.89 -53.453,-72.89 -55.073,-72.89C-59.933,-72.08 -63.982,-71.271 -67.222,-69.65C-71.271,-68.841 -74.511,-67.22 -76.94,-65.601C-82.61,-63.171 -86.659,-59.931 -90.708,-55.882C-91.519,-55.072 -91.519,-54.263 -92.329,-54.263C-93.138,-53.453 -93.948,-52.642 -93.948,-51.834C-96.378,-48.593 -97.998,-45.353 -99.618,-42.114C-100.427,-38.064 -102.047,-34.825 -102.857,-29.965" style="fill:rgb(237,28,36);fill-rule:nonzero;"/>
            </g>
            <g transform="matrix(1,0,0,1,214.813,395.064)">
                <path d="M0,12.96L-0.81,12.96C-2.43,13.77 -3.24,13.77 -4.859,14.579C-10.529,16.199 -17.008,18.629 -23.487,19.439C-29.156,21.059 -34.016,22.679 -38.065,24.298C-41.305,25.918 -44.544,27.538 -45.354,29.157C-46.974,29.968 -48.594,31.587 -49.404,33.207C-49.404,34.827 -50.214,37.257 -50.214,38.876C-50.214,42.926 -48.594,46.165 -46.164,48.595C-44.544,50.215 -42.115,51.024 -40.495,51.835C-38.065,52.645 -35.635,52.645 -32.396,52.645C-25.917,52.645 -20.248,51.835 -14.578,48.595C-13.768,47.785 -12.958,47.785 -12.148,46.976C-11.338,46.976 -11.338,46.165 -10.529,45.356C-7.289,42.926 -4.859,40.496 -3.24,37.257C-2.43,36.446 -2.43,36.446 -2.43,35.637C-1.62,34.827 -1.62,34.017 -1.62,33.207C0,29.968 0,25.108 0,20.249L0,12.96ZM-2.43,10.53C-0.81,9.72 0,9.72 1.62,8.91L3.24,8.91L3.24,20.249C3.24,25.918 2.43,29.968 1.62,34.017C0.81,34.827 0.81,35.637 0.81,36.446C0,37.257 0,38.066 -0.81,38.876C-2.43,42.116 -4.859,45.356 -8.909,47.785C-8.909,48.595 -9.719,49.405 -10.529,49.405C-11.338,50.215 -12.148,50.215 -12.958,51.024C-19.438,54.265 -25.107,55.884 -32.396,55.884C-35.635,55.884 -38.875,55.884 -41.305,55.074C-43.734,54.265 -46.164,52.645 -47.784,51.024C-51.023,47.785 -53.453,43.735 -53.453,38.876C-53.453,36.446 -52.644,34.017 -51.833,32.398C-51.023,29.968 -49.404,28.348 -47.784,26.728C-46.164,25.108 -42.925,23.488 -38.875,21.868C-35.635,20.249 -29.966,18.629 -24.297,17.009C-17.818,15.39 -11.338,13.77 -5.669,11.34C-4.049,11.34 -3.24,10.53 -2.43,10.53M-105.287,-27.535L-51.023,-21.866C-50.214,-25.105 -48.594,-27.535 -46.974,-29.965C-45.354,-32.394 -43.734,-34.015 -41.305,-35.634C-39.685,-37.254 -37.255,-38.063 -34.016,-38.874C-33.206,-38.874 -32.396,-38.874 -32.396,-39.684C-28.346,-40.493 -23.487,-40.493 -18.627,-40.493C-12.958,-40.493 -8.909,-39.684 -4.859,-38.063C-4.859,-38.063 -4.049,-37.254 -3.24,-37.254C-2.43,-36.444 -2.43,-36.444 -1.62,-35.634C0,-34.015 1.62,-31.585 2.43,-29.155C3.24,-25.915 3.24,-22.676 3.24,-19.436L3.24,-17.816L2.43,-17.816C-1.62,-16.196 -4.859,-14.577 -8.909,-13.767C-12.148,-12.957 -15.388,-11.337 -18.627,-10.527C-23.487,-9.718 -32.396,-7.288 -45.354,-4.858C-47.784,-4.048 -50.214,-4.048 -53.453,-3.238C-57.503,-2.429 -60.742,-1.618 -62.362,-1.618C-72.081,0.812 -79.37,3.241 -85.849,5.671C-92.329,8.101 -97.188,11.34 -100.427,15.39C-103.667,18.629 -106.097,22.679 -107.716,27.538C-109.336,32.398 -110.146,37.257 -110.146,42.926C-110.146,51.835 -107.716,59.124 -102.857,66.413C-102.047,67.223 -101.237,68.843 -99.618,69.652C-98.808,71.273 -97.188,72.082 -96.378,73.702C-92.329,76.941 -87.469,79.371 -82.61,81.801C-80.99,81.801 -80.18,82.611 -79.37,82.611C-72.081,85.041 -63.982,85.851 -55.073,85.851C-47.784,85.851 -41.305,85.041 -35.635,84.231C-29.156,83.421 -23.487,81.801 -18.627,79.371C-12.958,76.941 -8.099,73.702 -2.43,69.652C-1.62,68.843 0,68.032 0.81,67.223C1.62,65.603 3.24,64.793 4.049,63.983L6.479,61.554L6.479,64.793C7.289,67.223 7.289,68.843 7.289,70.462C8.099,72.082 8.099,73.702 8.909,74.512C8.909,76.132 9.719,77.751 11.338,80.181C11.338,80.181 12.148,80.991 12.148,81.801L12.148,82.611L65.602,82.611C63.982,80.181 63.172,77.751 62.362,75.321C61.552,72.892 60.743,70.462 59.933,68.032C59.933,66.413 59.123,63.983 59.123,60.743L59.123,-17.007C59.123,-22.676 58.313,-27.535 56.693,-33.204C55.883,-34.824 55.883,-35.634 55.883,-36.444C55.073,-37.254 55.073,-38.874 54.263,-39.684C52.644,-45.353 49.404,-50.212 46.974,-54.263C46.164,-54.263 45.354,-55.071 44.544,-55.882C44.544,-56.692 43.734,-57.501 42.925,-57.501C39.685,-60.741 35.636,-63.171 30.776,-65.601C26.727,-67.22 21.867,-68.841 16.198,-69.649C5.669,-72.079 -8.909,-72.89 -26.727,-72.89C-34.826,-72.89 -42.115,-72.079 -49.404,-71.27L-53.453,-71.27C-55.073,-70.46 -55.883,-70.46 -57.503,-70.46C-62.362,-69.649 -66.412,-68.841 -69.651,-67.22C-73.701,-66.411 -76.94,-64.79 -79.37,-63.171C-85.04,-60.741 -89.089,-57.501 -93.138,-53.452C-93.948,-52.642 -93.948,-51.833 -94.758,-51.833C-95.568,-51.022 -96.378,-50.212 -96.378,-49.403C-98.808,-46.163 -100.427,-42.923 -102.047,-39.684C-102.857,-35.634 -104.477,-32.394 -105.287,-27.535M-50.214,-19.436L-106.907,-25.105L-109.336,-25.105L-108.526,-26.726C-107.716,-31.585 -106.097,-36.444 -104.477,-40.493C-102.857,-44.544 -101.237,-47.782 -98.808,-51.022C-98.808,-51.833 -97.998,-52.642 -97.188,-53.452C-96.378,-54.263 -95.568,-55.071 -94.758,-55.882C-91.519,-59.931 -86.659,-63.171 -80.99,-66.411C-77.75,-68.03 -74.511,-68.841 -71.271,-70.46C-67.222,-71.27 -62.362,-72.89 -57.503,-73.7L-53.453,-73.7C-52.644,-74.509 -51.023,-74.509 -49.404,-74.509C-42.115,-75.319 -34.826,-76.13 -26.727,-76.13C-8.909,-76.13 5.669,-74.509 17.008,-72.89C22.677,-72.079 27.537,-70.46 32.396,-68.03C37.255,-65.601 41.305,-63.171 44.544,-59.931C45.354,-59.122 46.164,-59.122 46.974,-58.311C47.784,-57.501 48.594,-56.692 48.594,-55.882C52.644,-51.833 55.073,-46.974 57.503,-40.493C57.503,-39.684 58.313,-38.874 58.313,-37.254C59.123,-36.444 59.123,-34.824 59.123,-34.015C60.743,-28.345 61.552,-22.676 61.552,-17.007L61.552,51.024C61.552,54.265 61.552,57.504 62.362,60.743C62.362,63.173 62.362,65.603 63.172,68.032C63.172,69.652 63.982,72.082 65.602,74.512C66.412,76.941 67.222,80.181 68.841,83.421L70.461,85.041L10.529,85.041L10.529,84.231C9.719,84.231 9.719,83.421 9.719,82.611C8.909,82.611 8.909,81.801 8.909,81.801C7.289,78.562 6.479,76.941 5.669,75.321C5.669,74.512 4.859,72.892 4.859,71.273C4.859,70.462 4.049,68.843 4.049,68.032L3.24,68.843C1.62,70.462 0.81,71.273 -0.81,72.082C-6.479,76.132 -12.148,80.181 -17.818,82.611C-22.677,84.231 -28.346,85.851 -34.826,87.471C-41.305,88.28 -47.784,89.09 -55.073,89.09C-63.982,89.09 -72.891,87.471 -80.18,85.851C-80.99,85.041 -81.8,85.041 -83.419,84.231C-89.089,82.611 -93.948,79.371 -97.998,75.321C-99.618,74.512 -101.237,72.892 -102.047,72.082C-102.857,70.462 -104.477,68.843 -105.287,68.032C-110.146,60.743 -113.386,52.645 -113.386,42.926C-113.386,37.257 -112.576,31.587 -110.146,26.728C-108.526,21.868 -106.097,17.009 -102.047,12.96C-98.808,8.91 -93.948,5.671 -86.659,3.241C-80.18,0.001 -72.891,-2.429 -63.172,-4.048C-59.123,-4.858 -55.883,-5.668 -54.263,-5.668C-51.833,-6.478 -48.594,-7.288 -46.164,-7.288C-33.206,-10.527 -24.297,-12.147 -19.438,-13.767C-16.198,-14.577 -12.958,-15.387 -9.719,-17.007C-6.479,-17.816 -3.24,-18.626 0,-20.246C0,-23.485 0,-25.915 -0.81,-28.345C-1.62,-30.774 -2.43,-32.394 -4.049,-33.204C-4.049,-34.015 -4.859,-34.015 -4.859,-34.824C-5.669,-34.824 -5.669,-34.824 -6.479,-35.634C-9.719,-36.444 -13.768,-37.254 -18.627,-37.254C-23.487,-37.254 -27.537,-37.254 -31.586,-36.444C-32.396,-36.444 -32.396,-36.444 -33.206,-35.634C-35.635,-35.634 -38.065,-34.015 -39.685,-33.204C-42.115,-32.394 -43.734,-30.774 -44.544,-28.345C-46.164,-25.915 -47.784,-23.485 -48.594,-20.246L-49.404,-19.436L-50.214,-19.436Z" style="fill:rgb(42,42,44);fill-rule:nonzero;"/>
            </g>
            <g transform="matrix(1,0,0,1,310.381,476.056)">
                <path d="M0,-152.263L55.883,-152.263L55.883,-127.156C63.982,-136.874 72.081,-144.163 80.99,-149.023C89.089,-153.072 99.618,-155.501 111.766,-155.501C128.774,-155.501 140.923,-150.642 150.642,-140.923C160.36,-131.204 164.41,-115.817 164.41,-95.57L164.41,3.238L104.477,3.238L104.477,-82.611C104.477,-92.329 102.857,-98.809 99.618,-102.859C95.568,-106.908 90.709,-109.337 84.229,-109.337C76.94,-109.337 71.271,-106.098 66.412,-101.239C61.553,-95.57 59.933,-85.851 59.933,-71.273L59.933,3.238L0,3.238L0,-152.263Z" style="fill:rgb(42,42,44);fill-rule:nonzero;"/>
            </g>
            <g transform="matrix(1,0,0,1,510.426,476.056)">
                <path d="M0,-152.263L55.883,-152.263L55.883,-127.156C63.982,-136.874 72.081,-144.163 80.99,-149.023C89.089,-153.072 99.618,-155.501 111.767,-155.501C127.964,-155.501 140.923,-150.642 150.642,-140.923C159.551,-131.204 164.41,-115.817 164.41,-95.57L164.41,3.238L104.478,3.238L104.478,-82.611C104.478,-92.329 102.857,-98.809 98.808,-102.859C95.568,-106.908 90.709,-109.337 84.23,-109.337C76.94,-109.337 70.461,-106.098 66.412,-101.239C61.553,-95.57 59.933,-85.851 59.933,-71.273L59.933,3.238L0,3.238L0,-152.263Z" style="fill:rgb(42,42,44);fill-rule:nonzero;"/>
            </g>
            <g transform="matrix(1,0,0,1,816.567,397.495)">
                <path d="M0,8.099C-8.099,11.338 -17.008,13.768 -25.916,16.198C-38.064,19.437 -45.354,22.677 -48.594,25.107C-51.833,28.346 -53.453,32.396 -53.453,36.445C-53.453,40.495 -51.833,44.544 -48.594,47.784C-45.354,50.213 -40.494,51.833 -34.016,51.833C-27.536,51.833 -21.867,50.213 -16.197,46.974C-9.719,43.734 -6.479,40.495 -4.049,35.635C-1.619,30.776 0,25.107 0,17.818L0,8.099ZM-51.833,-22.677L-109.336,-29.157C-106.906,-38.876 -103.667,-46.975 -99.617,-52.643C-95.567,-58.313 -89.898,-63.172 -81.8,-67.221C-76.94,-70.462 -68.841,-72.891 -59.932,-74.51C-50.213,-76.131 -39.685,-76.94 -28.346,-76.94C-10.528,-76.94 4.05,-76.131 14.579,-73.702C25.917,-72.081 34.826,-68.032 42.115,-61.553C46.975,-56.694 51.024,-51.024 54.264,-42.924C56.693,-34.826 58.313,-26.727 58.313,-19.438L58.313,48.593C58.313,55.882 59.123,61.552 59.933,65.601C60.743,69.651 62.362,75.32 65.603,81.799L9.719,81.799C7.289,77.749 5.67,74.51 5.67,72.08C4.859,70.46 4.05,67.221 3.24,62.362C-4.859,69.651 -12.148,75.32 -20.247,78.56C-30.775,82.61 -42.924,85.039 -56.692,85.039C-75.32,85.039 -89.089,80.99 -98.808,72.08C-108.526,63.982 -113.386,53.453 -113.386,40.495C-113.386,29.156 -110.146,19.437 -102.856,11.338C-96.378,4.049 -83.419,-1.62 -64.792,-4.86C-42.114,-9.719 -27.536,-12.959 -21.057,-14.579C-14.578,-16.198 -7.289,-18.628 0,-21.868C0,-29.157 -1.619,-34.016 -4.859,-37.255C-8.099,-39.685 -12.958,-41.305 -21.057,-41.305C-30.775,-41.305 -38.064,-39.685 -42.924,-36.446C-46.974,-34.016 -49.403,-29.966 -51.833,-22.677" style="fill:rgb(42,42,44);fill-rule:nonzero;"/>
            </g>
            <g transform="matrix(1,0,0,1,897.558,479.294)">
                <path d="M0,-155.501L71.271,-155.501L94.758,-111.766L123.104,-155.501L189.517,-155.501L136.063,-81.8L193.565,0L123.915,0L94.758,-50.214L61.553,0L-3.239,0L53.453,-81.8L0,-155.501Z" style="fill:rgb(42,42,44);fill-rule:nonzero;"/>
            </g>
            <g transform="matrix(1,0,0,1,0,-4.39)">
                <rect x="294" y="249.39" width="3" height="347.5" style="fill:rgb(237,28,36);"/>
            </g>
            <g transform="matrix(-1,0,0,1,1196,151.276)">
                <rect x="96.334" y="343.89" width="1003.33" height="2.834" style="fill:rgb(237,28,36);"/>
            </g>
            <g transform="matrix(1,0,0,1,95,503.332)">
                <rect x="0" y="0" width="0.001" height="0.001" style="fill:rgb(237,28,36);"/>
            </g>
        </g>
    </g>
</svg>
