<?xml version="1.0" encoding="UTF-8" standalone="no"?><!DOCTYPE svg PUBLIC "-//W3C//DTD SVG 1.1//EN" "http://www.w3.org/Graphics/SVG/1.1/DTD/svg11.dtd"><svg width="100%" height="100%" viewBox="0 0 439 168" version="1.1" xmlns="http://www.w3.org/2000/svg" xmlns:xlink="http://www.w3.org/1999/xlink" xml:space="preserve" xmlns:serif="http://www.serif.com/" style="fill-rule:evenodd;clip-rule:evenodd;stroke-linejoin:round;stroke-miterlimit:2;"><g><g><g><path d="M95.839,37.586l24.385,0l0,11.131c3.647,-4.546 7.335,-7.796 11.067,-9.747c3.732,-1.952 8.279,-2.928 13.641,-2.928c7.249,0 12.922,2.156 17.018,6.466c4.097,4.311 6.145,10.971 6.145,19.979l0,43.431l-26.316,-0l0,-37.576c0,-4.29 -0.793,-7.324 -2.381,-9.105c-1.587,-1.78 -3.817,-2.67 -6.691,-2.67c-3.174,0 -5.748,1.201 -7.721,3.603c-1.973,2.403 -2.96,6.713 -2.96,12.933l0,32.815l-26.187,-0l-0,-68.332Z" style="fill-rule:nonzero;"/><path d="M183.73,37.586l24.386,0l-0,11.131c3.646,-4.546 7.335,-7.796 11.067,-9.747c3.732,-1.952 8.278,-2.928 13.64,-2.928c7.25,0 12.922,2.156 17.019,6.466c4.096,4.311 6.144,10.971 6.144,19.979l0,43.431l-26.315,-0l-0,-37.576c-0,-4.29 -0.794,-7.324 -2.381,-9.105c-1.587,-1.78 -3.818,-2.67 -6.692,-2.67c-3.174,0 -5.748,1.201 -7.721,3.603c-1.973,2.403 -2.96,6.713 -2.96,12.933l0,32.815l-26.187,-0l0,-68.332Z" style="fill-rule:nonzero;"/><path d="M295.493,59.72l-25.03,-2.638c0.944,-4.375 2.306,-7.818 4.086,-10.327c1.78,-2.509 4.343,-4.686 7.689,-6.531c2.402,-1.329 5.705,-2.359 9.909,-3.088c4.203,-0.729 8.75,-1.094 13.64,-1.094c7.85,0 14.156,0.44 18.917,1.319c4.761,0.879 8.729,2.713 11.903,5.501c2.231,1.931 3.989,4.665 5.276,8.204c1.287,3.539 1.931,6.917 1.931,10.134l-0,30.176c-0,3.217 0.203,5.738 0.611,7.561c0.407,1.823 1.297,4.15 2.67,6.981l-24.579,-0c-0.986,-1.759 -1.63,-3.099 -1.93,-4.022c-0.3,-0.922 -0.6,-2.37 -0.901,-4.343c-3.431,3.303 -6.841,5.662 -10.23,7.078c-4.633,1.887 -10.016,2.831 -16.15,2.831c-8.15,-0 -14.338,-1.887 -18.563,-5.662c-4.225,-3.775 -6.337,-8.429 -6.337,-13.962c-0,-5.191 1.522,-9.459 4.568,-12.805c3.045,-3.345 8.665,-5.833 16.857,-7.463c9.823,-1.973 16.193,-3.357 19.11,-4.15c2.917,-0.794 6.005,-1.834 9.265,-3.121c0,-3.217 -0.665,-5.469 -1.994,-6.756c-1.33,-1.287 -3.668,-1.93 -7.014,-1.93c-4.289,-0 -7.506,0.686 -9.651,2.059c-1.673,1.072 -3.024,3.088 -4.053,6.048Zm22.712,13.769c-3.603,1.287 -7.356,2.424 -11.26,3.41c-5.318,1.416 -8.686,2.81 -10.101,4.183c-1.459,1.415 -2.188,3.024 -2.188,4.825c0,2.059 0.719,3.743 2.156,5.051c1.437,1.308 3.549,1.963 6.337,1.963c2.917,-0 5.63,-0.708 8.14,-2.124c2.509,-1.415 4.289,-3.142 5.34,-5.179c1.051,-2.038 1.576,-4.687 1.576,-7.947l0,-4.182Z" style="fill-rule:nonzero;"/><path d="M353.658,37.586l31.077,0l10.842,19.046l12.643,-19.046l28.89,0l-23.31,32.557l24.983,35.775l-30.563,-0l-12.643,-22.005l-14.831,22.005l-28.375,-0l24.818,-35.775l-23.531,-32.557Z" style="fill-rule:nonzero;"/><path d="M27.843,59.263l-25.029,-2.638c0.944,-4.375 2.306,-7.818 4.086,-10.327c1.78,-2.509 4.343,-4.686 7.689,-6.531c2.402,-1.329 5.705,-2.359 9.908,-3.088c4.204,-0.729 8.751,-1.094 13.641,-1.094c7.85,0 14.155,0.44 18.917,1.319c4.761,0.879 8.729,2.713 11.903,5.501c2.23,1.931 3.989,4.665 5.276,8.204c1.287,3.539 1.93,6.917 1.93,10.134l0,30.176c0,3.217 0.204,5.737 0.611,7.561c0.408,1.823 1.298,4.15 2.671,6.981l-24.579,-0c-0.987,-1.759 -1.63,-3.1 -1.93,-4.022c-0.301,-0.922 -0.601,-2.37 -0.901,-4.343c-3.432,3.303 -6.842,5.662 -10.23,7.078c-4.633,1.887 -10.016,2.831 -16.15,2.831c-8.15,-0 -14.338,-1.888 -18.563,-5.662c-4.225,-3.775 -6.338,-8.429 -6.338,-13.963c0,-5.19 1.523,-9.458 4.568,-12.804c3.046,-3.345 8.665,-5.833 16.858,-7.463c9.823,-1.973 16.193,-3.357 19.11,-4.15c2.917,-0.794 6.005,-1.834 9.265,-3.121c0,-3.217 -0.665,-5.469 -1.995,-6.756c-1.329,-1.287 -3.667,-1.93 -7.013,-1.93c-4.289,-0 -7.506,0.686 -9.651,2.059c-1.673,1.072 -3.024,3.088 -4.054,6.048Zm22.713,13.769c-3.603,1.287 -7.356,2.424 -11.26,3.41c-5.319,1.416 -8.686,2.81 -10.102,4.183c-1.458,1.415 -2.187,3.024 -2.187,4.825c-0,2.059 0.718,3.743 2.155,5.051c1.437,1.308 3.55,1.963 6.338,1.963c2.917,-0 5.63,-0.708 8.139,-2.124c2.51,-1.415 4.29,-3.142 5.341,-5.179c1.051,-2.038 1.576,-4.687 1.576,-7.947l0,-4.182Z" style="fill:#ff1620;fill-rule:nonzero;stroke:#000;stroke-width:1px;"/><rect x="0" y="117.62" width="438.875" height="2.666" style="fill:#ff3039;"/><path d="M85.144,0l0,167.139l2.666,0l0,-167.139l-2.666,0Z" style="fill:#ff3039;"/></g></g></g></svg>